# xmcd CD database file
#
# Track frame offsets:
#	150
#	14822
#	33660
#	45860
#
# Disc length: 975 seconds
#
# Revision: 0
# Processed by: cddbd v1.5.1PL0 Copyright (c) Steve Scherf et al.
# Submitted via: CDex 1.51
#
DISCID=2b03cd04
DTITLE=CAT EP 1 - coaltar of the deepers
DYEAR=1996
DGENRE=Rock
TTITLE0=Cell
TTITLE1=A prophecy on the C side
TTITLE2=DI++
TTITLE3=夏の行人坂
EXTD=YEAR: 1996.11/26
EXTT0=
EXTT1=
EXTT2=
EXTT3=
PLAYORDER=
